<svg xmlns="http://www.w3.org/2000/svg" xmlns:xlink="http://www.w3.org/1999/xlink" id="visual" viewBox="0 0 960 50" width="960" height="50" version="1.1"><rect x="0" y="0" width="960" height="50" fill="#4a3687"/><path d="M0 40L42 24L83 30L125 22L167 43L209 34L250 43L292 28L334 41L376 42L417 25L459 25L501 27L543 25L584 25L626 32L668 32L710 27L751 27L793 37L835 40L877 35L918 23L960 37L960 0L918 0L877 0L835 0L793 0L751 0L710 0L668 0L626 0L584 0L543 0L501 0L459 0L417 0L376 0L334 0L292 0L250 0L209 0L167 0L125 0L83 0L42 0L0 0Z" fill="#4a3687"/><path d="M0 40L42 38L83 36L125 24L167 22L209 24L250 36L292 38L334 25L376 34L417 22L459 24L501 37L543 28L584 28L626 35L668 20L710 35L751 24L793 36L835 34L877 25L918 26L960 21L960 0L918 0L877 0L835 0L793 0L751 0L710 0L668 0L626 0L584 0L543 0L501 0L459 0L417 0L376 0L334 0L292 0L250 0L209 0L167 0L125 0L83 0L42 0L0 0Z" fill="#45357f"/><path d="M0 24L42 28L83 31L125 20L167 22L209 32L250 27L292 33L334 21L376 33L417 28L459 34L501 36L543 19L584 21L626 26L668 19L710 29L751 36L793 28L835 33L877 27L918 34L960 25L960 0L918 0L877 0L835 0L793 0L751 0L710 0L668 0L626 0L584 0L543 0L501 0L459 0L417 0L376 0L334 0L292 0L250 0L209 0L167 0L125 0L83 0L42 0L0 0Z" fill="#403477"/><path d="M0 32L42 16L83 23L125 33L167 23L209 25L250 27L292 30L334 17L376 21L417 18L459 18L501 16L543 17L584 30L626 30L668 23L710 20L751 20L793 24L835 31L877 16L918 24L960 32L960 0L918 0L877 0L835 0L793 0L751 0L710 0L668 0L626 0L584 0L543 0L501 0L459 0L417 0L376 0L334 0L292 0L250 0L209 0L167 0L125 0L83 0L42 0L0 0Z" fill="#3c326f"/><path d="M0 25L42 15L83 28L125 15L167 24L209 21L250 24L292 21L334 25L376 24L417 30L459 29L501 17L543 15L584 21L626 25L668 18L710 23L751 15L793 19L835 14L877 20L918 23L960 29L960 0L918 0L877 0L835 0L793 0L751 0L710 0L668 0L626 0L584 0L543 0L501 0L459 0L417 0L376 0L334 0L292 0L250 0L209 0L167 0L125 0L83 0L42 0L0 0Z" fill="#373167"/><path d="M0 17L42 19L83 20L125 24L167 23L209 24L250 12L292 25L334 14L376 20L417 26L459 12L501 15L543 25L584 16L626 22L668 15L710 27L751 13L793 21L835 17L877 14L918 18L960 14L960 0L918 0L877 0L835 0L793 0L751 0L710 0L668 0L626 0L584 0L543 0L501 0L459 0L417 0L376 0L334 0L292 0L250 0L209 0L167 0L125 0L83 0L42 0L0 0Z" fill="#342f5f"/><path d="M0 17L42 11L83 12L125 21L167 11L209 10L250 17L292 10L334 18L376 19L417 17L459 10L501 15L543 12L584 23L626 21L668 23L710 19L751 17L793 14L835 23L877 11L918 18L960 16L960 0L918 0L877 0L835 0L793 0L751 0L710 0L668 0L626 0L584 0L543 0L501 0L459 0L417 0L376 0L334 0L292 0L250 0L209 0L167 0L125 0L83 0L42 0L0 0Z" fill="#302d57"/><path d="M0 20L42 19L83 19L125 17L167 18L209 8L250 19L292 16L334 18L376 17L417 7L459 11L501 7L543 18L584 8L626 9L668 16L710 13L751 18L793 14L835 12L877 11L918 19L960 8L960 0L918 0L877 0L835 0L793 0L751 0L710 0L668 0L626 0L584 0L543 0L501 0L459 0L417 0L376 0L334 0L292 0L250 0L209 0L167 0L125 0L83 0L42 0L0 0Z" fill="#2d2b4f"/><path d="M0 12L42 15L83 13L125 12L167 11L209 14L250 7L292 13L334 7L376 13L417 7L459 16L501 12L543 11L584 14L626 10L668 14L710 16L751 15L793 6L835 12L877 7L918 10L960 7L960 0L918 0L877 0L835 0L793 0L751 0L710 0L668 0L626 0L584 0L543 0L501 0L459 0L417 0L376 0L334 0L292 0L250 0L209 0L167 0L125 0L83 0L42 0L0 0Z" fill="#2a2946"/><path d="M0 9L42 7L83 9L125 10L167 4L209 7L250 5L292 4L334 8L376 6L417 10L459 13L501 12L543 6L584 9L626 10L668 6L710 11L751 10L793 9L835 5L877 9L918 10L960 9L960 0L918 0L877 0L835 0L793 0L751 0L710 0L668 0L626 0L584 0L543 0L501 0L459 0L417 0L376 0L334 0L292 0L250 0L209 0L167 0L125 0L83 0L42 0L0 0Z" fill="#28273e"/><path d="M0 2L42 7L83 3L125 9L167 8L209 7L250 7L292 7L334 6L376 8L417 6L459 2L501 4L543 8L584 3L626 9L668 1L710 7L751 4L793 6L835 6L877 7L918 8L960 7L960 0L918 0L877 0L835 0L793 0L751 0L710 0L668 0L626 0L584 0L543 0L501 0L459 0L417 0L376 0L334 0L292 0L250 0L209 0L167 0L125 0L83 0L42 0L0 0Z" fill="#252536"/><path d="M0 2L42 2L83 5L125 3L167 5L209 2L250 2L292 2L334 4L376 5L417 2L459 2L501 1L543 0L584 3L626 1L668 4L710 3L751 0L793 3L835 4L877 2L918 2L960 1L960 0L918 0L877 0L835 0L793 0L751 0L710 0L668 0L626 0L584 0L543 0L501 0L459 0L417 0L376 0L334 0L292 0L250 0L209 0L167 0L125 0L83 0L42 0L0 0Z" fill="#23232e"/></svg>