<svg xmlns="http://www.w3.org/2000/svg" xmlns:xlink="http://www.w3.org/1999/xlink" id="visual" viewBox="0 0 960 540" width="960" height="540" version="1.1"><rect x="0" y="0" width="960" height="540" fill="#2E2E38"/><g transform="translate(1140.0466471658679 240.73507930062283)"><path d="M211.2 -325.4C275.5 -328.8 330.4 -275.6 320.7 -212C310.9 -148.3 236.5 -74.2 236.2 -0.2C235.9 73.8 309.8 147.7 336.8 241.3C363.9 335 344.2 448.5 280.3 591.6C216.3 734.7 108.2 907.4 -9 922.9C-126.2 938.5 -252.3 797.1 -342 668.8C-431.6 540.6 -484.7 425.5 -563.1 316.3C-641.5 207 -745.3 103.5 -695.9 28.5C-646.5 -46.5 -444.1 -93 -302.6 -93C-161.1 -93 -80.5 -46.5 -40.3 -56.9C0 -67.3 0 -134.7 36.7 -198.3C73.5 -262 147 -321.9 211.2 -325.4" fill="none" stroke="#6649b8" stroke-width="4"/></g></svg>