<svg xmlns="http://www.w3.org/2000/svg" xmlns:xlink="http://www.w3.org/1999/xlink" id="visual" viewBox="0 0 960 540" width="960" height="540" version="1.1"><path d="M0 39L42 39L83 39L125 39L167 39L209 44L250 39L292 39L334 44L376 39L417 39L459 44L501 39L543 39L584 44L626 44L668 44L710 39L751 39L793 44L835 39L877 39L918 44L960 44L960 0L918 0L877 0L835 0L793 0L751 0L710 0L668 0L626 0L584 0L543 0L501 0L459 0L417 0L376 0L334 0L292 0L250 0L209 0L167 0L125 0L83 0L42 0L0 0Z" fill="#4a3687"/><path d="M0 71L42 71L83 71L125 71L167 77L209 77L250 71L292 71L334 77L376 71L417 71L459 77L501 71L543 71L584 77L626 77L668 77L710 77L751 71L793 82L835 71L877 71L918 77L960 77L960 42L918 42L877 37L835 37L793 42L751 37L710 37L668 42L626 42L584 42L543 37L501 37L459 42L417 37L376 37L334 42L292 37L250 37L209 42L167 37L125 37L83 37L42 37L0 37Z" fill="#4f3990"/><path d="M0 93L42 93L83 93L125 93L167 98L209 98L250 93L292 93L334 98L376 93L417 93L459 98L501 93L543 93L584 98L626 98L668 98L710 98L751 93L793 104L835 93L877 93L918 98L960 98L960 75L918 75L877 69L835 69L793 80L751 69L710 75L668 75L626 75L584 75L543 69L501 69L459 75L417 69L376 69L334 75L292 69L250 69L209 75L167 75L125 69L83 69L42 69L0 69Z" fill="#543d99"/><path d="M0 201L42 206L83 201L125 201L167 201L209 212L250 206L292 201L334 212L376 201L417 206L459 206L501 201L543 195L584 206L626 217L668 206L710 206L751 206L793 201L835 195L877 195L918 212L960 212L960 96L918 96L877 91L835 91L793 102L751 91L710 96L668 96L626 96L584 96L543 91L501 91L459 96L417 91L376 91L334 96L292 91L250 91L209 96L167 96L125 91L83 91L42 91L0 91Z" fill="#5940a1"/><path d="M0 233L42 239L83 228L125 233L167 233L209 244L250 233L292 233L334 244L376 233L417 233L459 239L501 228L543 228L584 239L626 244L668 239L710 233L751 239L793 228L835 228L877 228L918 244L960 244L960 210L918 210L877 193L835 193L793 199L751 204L710 204L668 204L626 215L584 204L543 193L501 199L459 204L417 204L376 199L334 210L292 199L250 204L209 210L167 199L125 199L83 199L42 204L0 199Z" fill="#5e44aa"/><path d="M0 260L42 266L83 255L125 260L167 260L209 271L250 260L292 260L334 271L376 260L417 260L459 266L501 255L543 255L584 266L626 271L668 266L710 260L751 266L793 255L835 255L877 255L918 271L960 271L960 242L918 242L877 226L835 226L793 226L751 237L710 231L668 237L626 242L584 237L543 226L501 226L459 237L417 231L376 231L334 242L292 231L250 231L209 242L167 231L125 231L83 226L42 237L0 231Z" fill="#6347b3"/><path d="M0 357L42 357L83 357L125 368L167 363L209 368L250 352L292 363L334 374L376 357L417 357L459 363L501 357L543 368L584 357L626 368L668 374L710 357L751 363L793 357L835 363L877 357L918 368L960 374L960 269L918 269L877 253L835 253L793 253L751 264L710 258L668 264L626 269L584 264L543 253L501 253L459 264L417 258L376 258L334 269L292 258L250 258L209 269L167 258L125 258L83 253L42 264L0 258Z" fill="#6b4eba"/><path d="M0 379L42 379L83 379L125 390L167 384L209 390L250 374L292 384L334 395L376 379L417 379L459 384L501 379L543 390L584 379L626 390L668 395L710 379L751 384L793 379L835 384L877 379L918 390L960 395L960 372L918 366L877 355L835 361L793 355L751 361L710 355L668 372L626 366L584 355L543 366L501 355L459 361L417 355L376 355L334 372L292 361L250 350L209 366L167 361L125 366L83 355L42 355L0 355Z" fill="#6347B3"/><path d="M0 449L42 444L83 444L125 449L167 455L209 449L250 444L292 449L334 455L376 444L417 444L459 449L501 438L543 449L584 444L626 449L668 455L710 444L751 444L793 444L835 449L877 444L918 449L960 455L960 393L918 388L877 377L835 382L793 377L751 382L710 377L668 393L626 388L584 377L543 388L501 377L459 382L417 377L376 377L334 393L292 382L250 372L209 388L167 382L125 388L83 377L42 377L0 377Z" fill="#5E44AA"/><path d="M0 498L42 492L83 492L125 492L167 498L209 492L250 492L292 492L334 498L376 492L417 498L459 492L501 492L543 498L584 492L626 498L668 498L710 492L751 492L793 492L835 492L877 492L918 492L960 498L960 453L918 447L877 442L835 447L793 442L751 442L710 442L668 453L626 447L584 442L543 447L501 436L459 447L417 442L376 442L334 453L292 447L250 442L209 447L167 453L125 447L83 442L42 442L0 447Z" fill="#6347B3"/><path d="M0 519L42 519L83 519L125 519L167 519L209 519L250 519L292 519L334 519L376 519L417 519L459 519L501 519L543 519L584 519L626 519L668 519L710 519L751 519L793 519L835 519L877 519L918 519L960 519L960 496L918 490L877 490L835 490L793 490L751 490L710 490L668 496L626 496L584 490L543 496L501 490L459 490L417 496L376 490L334 496L292 490L250 490L209 490L167 496L125 490L83 490L42 490L0 496Z" fill="#5E44AA"/><path d="M0 541L42 541L83 541L125 541L167 541L209 541L250 541L292 541L334 541L376 541L417 541L459 541L501 541L543 541L584 541L626 541L668 541L710 541L751 541L793 541L835 541L877 541L918 541L960 541L960 517L918 517L877 517L835 517L793 517L751 517L710 517L668 517L626 517L584 517L543 517L501 517L459 517L417 517L376 517L334 517L292 517L250 517L209 517L167 517L125 517L83 517L42 517L0 517Z" fill="#5E44AA"/></svg>