<svg xmlns="http://www.w3.org/2000/svg" xmlns:xlink="http://www.w3.org/1999/xlink" id="visual" viewBox="0 0 960 50" width="960" height="50" version="1.1"><rect x="0" y="0" width="960" height="50" fill="#23232e"/><path d="M0 36L42 37L83 28L125 32L167 33L209 37L250 39L292 32L334 41L376 40L417 41L459 37L501 31L543 38L584 32L626 38L668 36L710 34L751 41L793 32L835 29L877 37L918 29L960 40L960 0L918 0L877 0L835 0L793 0L751 0L710 0L668 0L626 0L584 0L543 0L501 0L459 0L417 0L376 0L334 0L292 0L250 0L209 0L167 0L125 0L83 0L42 0L0 0Z" fill="#23232e"/><path d="M0 34L42 34L83 27L125 26L167 35L209 33L250 28L292 30L334 28L376 37L417 29L459 26L501 28L543 38L584 38L626 28L668 27L710 31L751 32L793 28L835 25L877 38L918 25L960 35L960 0L918 0L877 0L835 0L793 0L751 0L710 0L668 0L626 0L584 0L543 0L501 0L459 0L417 0L376 0L334 0L292 0L250 0L209 0L167 0L125 0L83 0L42 0L0 0Z" fill="#27273a"/><path d="M0 27L42 29L83 31L125 34L167 26L209 24L250 33L292 31L334 27L376 27L417 30L459 35L501 35L543 28L584 26L626 33L668 23L710 23L751 33L793 25L835 32L877 23L918 32L960 32L960 0L918 0L877 0L835 0L793 0L751 0L710 0L668 0L626 0L584 0L543 0L501 0L459 0L417 0L376 0L334 0L292 0L250 0L209 0L167 0L125 0L83 0L42 0L0 0Z" fill="#2b2b46"/><path d="M0 24L42 22L83 30L125 27L167 21L209 26L250 20L292 30L334 28L376 22L417 25L459 29L501 26L543 23L584 29L626 29L668 27L710 30L751 22L793 28L835 31L877 28L918 22L960 26L960 0L918 0L877 0L835 0L793 0L751 0L710 0L668 0L626 0L584 0L543 0L501 0L459 0L417 0L376 0L334 0L292 0L250 0L209 0L167 0L125 0L83 0L42 0L0 0Z" fill="#302f53"/><path d="M0 25L42 21L83 22L125 23L167 19L209 18L250 23L292 21L334 25L376 23L417 22L459 18L501 21L543 24L584 25L626 20L668 20L710 24L751 19L793 27L835 26L877 18L918 27L960 20L960 0L918 0L877 0L835 0L793 0L751 0L710 0L668 0L626 0L584 0L543 0L501 0L459 0L417 0L376 0L334 0L292 0L250 0L209 0L167 0L125 0L83 0L42 0L0 0Z" fill="#35335f"/><path d="M0 19L42 21L83 21L125 22L167 25L209 16L250 24L292 24L334 25L376 21L417 23L459 19L501 18L543 23L584 16L626 20L668 16L710 18L751 21L793 25L835 24L877 19L918 18L960 20L960 0L918 0L877 0L835 0L793 0L751 0L710 0L668 0L626 0L584 0L543 0L501 0L459 0L417 0L376 0L334 0L292 0L250 0L209 0L167 0L125 0L83 0L42 0L0 0Z" fill="#3a366c"/><path d="M0 20L42 13L83 15L125 15L167 20L209 13L250 17L292 16L334 17L376 14L417 16L459 13L501 17L543 21L584 18L626 19L668 18L710 17L751 14L793 20L835 17L877 22L918 19L960 19L960 0L918 0L877 0L835 0L793 0L751 0L710 0L668 0L626 0L584 0L543 0L501 0L459 0L417 0L376 0L334 0L292 0L250 0L209 0L167 0L125 0L83 0L42 0L0 0Z" fill="#403a78"/><path d="M0 17L42 13L83 15L125 14L167 18L209 17L250 12L292 11L334 17L376 12L417 15L459 11L501 17L543 13L584 12L626 13L668 15L710 12L751 16L793 13L835 16L877 13L918 16L960 17L960 0L918 0L877 0L835 0L793 0L751 0L710 0L668 0L626 0L584 0L543 0L501 0L459 0L417 0L376 0L334 0L292 0L250 0L209 0L167 0L125 0L83 0L42 0L0 0Z" fill="#463d85"/><path d="M0 11L42 11L83 11L125 11L167 9L209 9L250 10L292 12L334 15L376 8L417 11L459 14L501 10L543 15L584 14L626 13L668 12L710 10L751 11L793 12L835 10L877 10L918 9L960 8L960 0L918 0L877 0L835 0L793 0L751 0L710 0L668 0L626 0L584 0L543 0L501 0L459 0L417 0L376 0L334 0L292 0L250 0L209 0L167 0L125 0L83 0L42 0L0 0Z" fill="#4d4192"/><path d="M0 6L42 6L83 6L125 6L167 8L209 9L250 6L292 6L334 6L376 10L417 7L459 7L501 9L543 11L584 9L626 10L668 10L710 8L751 6L793 7L835 8L877 9L918 6L960 7L960 0L918 0L877 0L835 0L793 0L751 0L710 0L668 0L626 0L584 0L543 0L501 0L459 0L417 0L376 0L334 0L292 0L250 0L209 0L167 0L125 0L83 0L42 0L0 0Z" fill="#55449f"/><path d="M0 5L42 4L83 6L125 6L167 6L209 5L250 7L292 4L334 8L376 8L417 4L459 4L501 6L543 4L584 8L626 4L668 4L710 4L751 6L793 8L835 5L877 7L918 4L960 5L960 0L918 0L877 0L835 0L793 0L751 0L710 0L668 0L626 0L584 0L543 0L501 0L459 0L417 0L376 0L334 0L292 0L250 0L209 0L167 0L125 0L83 0L42 0L0 0Z" fill="#5d46ab"/><path d="M0 2L42 4L83 3L125 3L167 3L209 3L250 2L292 2L334 4L376 3L417 3L459 3L501 2L543 4L584 2L626 1L668 2L710 3L751 2L793 5L835 3L877 4L918 2L960 5L960 0L918 0L877 0L835 0L793 0L751 0L710 0L668 0L626 0L584 0L543 0L501 0L459 0L417 0L376 0L334 0L292 0L250 0L209 0L167 0L125 0L83 0L42 0L0 0Z" fill="#5E44AA"/></svg>