<svg xmlns="http://www.w3.org/2000/svg" xmlns:xlink="http://www.w3.org/1999/xlink" id="visual" viewBox="0 0 960 50" width="960" height="50" version="1.1"><rect x="0" y="0" width="960" height="50" fill="#2E2E38"/><path d="M0 26L6.7 26.2C13.3 26.3 26.7 26.7 40 26.5C53.3 26.3 66.7 25.7 80 24.8C93.3 24 106.7 23 120 23.5C133.3 24 146.7 26 160 26.7C173.3 27.3 186.7 26.7 200 25.8C213.3 25 226.7 24 240 24.3C253.3 24.7 266.7 26.3 280 26.5C293.3 26.7 306.7 25.3 320 24.7C333.3 24 346.7 24 360 23.2C373.3 22.3 386.7 20.7 400 20.2C413.3 19.7 426.7 20.3 440 20.5C453.3 20.7 466.7 20.3 480 20.8C493.3 21.3 506.7 22.7 520 23.7C533.3 24.7 546.7 25.3 560 25C573.3 24.7 586.7 23.3 600 23.7C613.3 24 626.7 26 640 25.7C653.3 25.3 666.7 22.7 680 22.7C693.3 22.7 706.7 25.3 720 26C733.3 26.7 746.7 25.3 760 24.7C773.3 24 786.7 24 800 24.7C813.3 25.3 826.7 26.7 840 26.8C853.3 27 866.7 26 880 25.3C893.3 24.7 906.7 24.3 920 24.8C933.3 25.3 946.7 26.7 953.3 27.3L960 28L960 0L953.3 0C946.7 0 933.3 0 920 0C906.7 0 893.3 0 880 0C866.7 0 853.3 0 840 0C826.7 0 813.3 0 800 0C786.7 0 773.3 0 760 0C746.7 0 733.3 0 720 0C706.7 0 693.3 0 680 0C666.7 0 653.3 0 640 0C626.7 0 613.3 0 600 0C586.7 0 573.3 0 560 0C546.7 0 533.3 0 520 0C506.7 0 493.3 0 480 0C466.7 0 453.3 0 440 0C426.7 0 413.3 0 400 0C386.7 0 373.3 0 360 0C346.7 0 333.3 0 320 0C306.7 0 293.3 0 280 0C266.7 0 253.3 0 240 0C226.7 0 213.3 0 200 0C186.7 0 173.3 0 160 0C146.7 0 133.3 0 120 0C106.7 0 93.3 0 80 0C66.7 0 53.3 0 40 0C26.7 0 13.3 0 6.7 0L0 0Z" fill="#23232E" stroke-linecap="round" stroke-linejoin="miter"/></svg>