<?xml version="1.0" encoding="utf-8"?>
<!-- Generator: Adobe Illustrator 24.1.2, SVG Export Plug-In . SVG Version: 6.00 Build 0)  -->
<svg version="1.1" id="Layer_1" xmlns="http://www.w3.org/2000/svg" xmlns:xlink="http://www.w3.org/1999/xlink" x="0px" y="0px"
	 viewBox="0 0 24 24" style="enable-background:new 0 0 24 24;" xml:space="preserve">
<style type="text/css">
	.st0{fill:url(#SVGID_1_);}
</style>
<linearGradient id="SVGID_1_" gradientUnits="userSpaceOnUse" x1="78.5882" y1="11.9998" x2="79.0882" y2="11.9998">
	<stop  offset="0" style="stop-color:#FFFFFF"/>
	<stop  offset="1" style="stop-color:#000000"/>
</linearGradient>
<path class="st0" d="M11,0c-0.8,0-1.5,0.4-2.2,0.7C8.2,1,7.6,1.2,6.9,1.4C6.3,1.6,5.6,1.7,5.1,2.2C4.9,2.4,4.8,2.6,4.6,2.8
	C4.3,3.3,4.1,3.9,4.1,4.5c0,0.6,0.2,1.2,0.4,1.8C4.9,7.5,5.3,8.8,5.7,10c0.4,1.2,0.7,2.3,1.3,3.4c0.2,0.4,0.3,0.8,0.5,1.2
	c0,0.1,0.1,0.2,0.1,0.1c0.1,0,0.2-0.1,0.4-0.2c0.8-0.4,1.7-0.6,2.7-0.7c0.7-0.1,1.4-0.1,2.1,0.1c0.7,0.2,1.4,0.4,2.1,0.7
	c0.4,0.2,0.7,0.3,1.1,0.5c0,0,0.1,0.1,0.2,0c0.2-0.3,0.5-0.6,0.7-1c0.5-1.1,0.5-2.3,1-3.3c0.4-0.7,0.9-1.3,1.3-2
	c0.2-0.3,0.4-0.5,0.6-0.7c0.4-0.7,0.8-1.4,1-2.2c0.1-0.3,0.2-0.6,0.1-0.9c-0.1-0.3-0.2-0.6-0.3-0.8c-0.1-0.2-0.2-0.5-0.3-0.7
	c-0.4-0.7-1.1-1.1-1.7-1.5c-1-0.6-2.2-1-3.4-1.3c-1.2-0.3-2.5-0.5-3.7-0.6C11.3,0,11.1,0,11,0L11,0z M10.1,0.6
	C9.9,0.8,9.8,1.2,9.6,1.5C9.5,2.1,9.4,2.7,9.4,3.2c0.1,1.1,0.2,2.1,0.3,3.2c0.2,1.4,0.4,2.7,0.7,4c0,0.2,0.1,0.3,0.1,0.5
	c-0.1-0.2-0.2-0.4-0.3-0.6C10,9.6,9.8,8.8,9.6,8C9.3,6.6,9.1,5.2,9.1,3.7c0-0.8,0-1.7,0.4-2.5C9.6,1,9.7,0.8,9.9,0.6
	C10,0.6,10.1,0.6,10.1,0.6C10.1,0.6,10.1,0.6,10.1,0.6z M6.5,1.8c0.1,0,0.1,0.2,0.2,0.3c0.3,0.8,0.4,1.6,0.7,2.4
	c0.2,0.6,0.2,1.3,0.3,2c0.1,1,0.1,2.1,0.2,3.1C7.9,9.8,8,10,8,10.2c0,0.1-0.1,0-0.1,0C7.8,10,7.8,9.8,7.7,9.6
	c-0.2-0.6-0.2-1.3-0.3-2C7.2,6.3,7.1,5,6.8,3.7C6.7,3.1,6.5,2.5,6.4,1.8C6.4,1.8,6.5,1.8,6.5,1.8z M4.6,3.6C4.8,3.7,5,3.9,5.1,4
	c0.4,0.5,0.5,1.2,0.7,1.8c0.3,1.3,0.4,2.6,0.7,3.8c0.1,0.7,0.3,1.3,0.5,2c0,0.1,0,0.1,0,0.2c-0.2-0.4-0.4-0.9-0.6-1.4
	C5.9,8.8,5.7,7,5.2,5.3C5.1,4.8,4.9,4.3,4.6,3.9C4.6,3.8,4.5,3.7,4.6,3.6C4.6,3.6,4.6,3.6,4.6,3.6L4.6,3.6z M17.2,16.8
	c-0.1,0-0.3,0.1-0.3,0.3c0.1,0.2,0.3,0.3,0.5,0.4c0.4,0.2,0.9,0.3,1.4,0.5c0.1,0.1,0.1,0.2,0.1,0.3c-0.2,0.3-0.5,0.4-0.7,0.6
	c-0.4,0.3-0.8,0.5-1.1,0.9c-0.1,0.1,0,0.3,0.1,0.3c0.1,0.1,0.2,0,0.3-0.1c0.5-0.3,1-0.7,1.5-1c0.3-0.2,0.6-0.5,0.9-0.8
	c0.1-0.1,0-0.3-0.1-0.4c-0.3-0.3-0.6-0.5-1-0.7c-0.5-0.2-0.9-0.4-1.5-0.5C17.4,16.8,17.3,16.8,17.2,16.8z M6,16.8
	c-0.5,0.1-1,0.4-1.5,0.7c-0.4,0.2-0.9,0.5-1.2,0.8c-0.1,0.1-0.2,0.3-0.2,0.5C3.2,18.9,3.3,19,3.4,19c0.9,0.4,1.7,0.8,2.6,1.2
	c0.1,0,0.3,0.1,0.4,0.1c0.2,0,0.3-0.2,0.2-0.4c-0.1-0.2-0.4-0.4-0.7-0.5c-0.5-0.3-1.2-0.5-1.6-0.9c0-0.1,0.1-0.1,0.1-0.2
	c0.5-0.4,1.2-0.6,1.7-1.1c0.1-0.1,0.2-0.3,0-0.4C6.2,16.8,6.1,16.8,6,16.8z M14.1,17.6c-0.4,0-0.8,0.4-0.8,0.9
	c0,0.3,0.1,0.5,0.2,0.7c0.1,0.2,0.3,0.3,0.5,0.3c0.3,0,0.6-0.1,0.7-0.3c0.1-0.2,0.2-0.5,0.2-0.8C15,18,14.5,17.6,14.1,17.6
	L14.1,17.6z M9.6,17.6c-0.5,0-0.8,0.5-0.8,1c0,0.4,0.3,0.9,0.8,1c0.4,0.1,0.7-0.2,0.8-0.5c0.1-0.4,0.1-0.8,0-1.1
	C10.2,17.7,9.9,17.6,9.6,17.6z M9.7,18.3c0.2,0.1,0.3,0.5,0,0.6c-0.1,0-0.2-0.1-0.2-0.2C9.5,18.5,9.6,18.3,9.7,18.3z M14.1,18.4
	c0.1,0,0.2,0.1,0.2,0.2c0,0.2-0.2,0.3-0.4,0.2c-0.1-0.1-0.2-0.3,0-0.4C14,18.4,14.1,18.4,14.1,18.4z M10.6,21.4
	c-0.6,0.1-1,0.3-1.5,0.6c-0.3,0.2-0.7,0.3-1,0.2C7.7,22,7.4,21.8,7,21.6c-0.1,0-0.1,0.1,0,0.1c0.1,0.5,0.1,1.1,0.5,1.5
	c0.3,0.4,0.9,0.6,1.4,0.7c0.8,0.1,1.6-0.1,2.3-0.6c0.3-0.3,0.6-0.6,0.6-1c0-0.3-0.2-0.6-0.5-0.7C11,21.5,10.8,21.4,10.6,21.4z
	 M13.2,21.4c-0.4,0.1-0.8,0.3-1,0.6c-0.1,0.4,0,0.7,0.3,1c0.4,0.5,1.1,0.8,1.7,0.9c0.6,0.1,1.2,0,1.7-0.2c0.4-0.2,0.8-0.7,0.9-1.1
	c0.1-0.3,0.1-0.6,0.1-0.9c-0.1-0.1-0.1,0-0.2,0.1c-0.3,0.1-0.6,0.4-1,0.4c-0.4,0-0.7-0.2-1-0.3c-0.4-0.2-0.9-0.4-1.3-0.5
	C13.3,21.4,13.2,21.4,13.2,21.4L13.2,21.4z M10.3,16.3c-0.1,0-0.1,0-0.2,0c-0.2,0-0.3,0.1-0.5,0.2c-0.1,0.1-0.3,0.1-0.4,0.2
	c-0.1,0-0.1,0.1-0.2,0.1c-0.1,0-0.1,0-0.2,0c-0.1,0-0.1-0.1-0.1-0.3l-0.3,0c0,0.2,0.1,0.4,0.3,0.5C8.8,17.1,9,17.1,9.1,17
	c0.1,0,0.2-0.1,0.3-0.1s0.3-0.1,0.4-0.2c0.1-0.1,0.3-0.1,0.4-0.1c0.1,0,0.2,0,0.3,0c0.1,0.1,0.2,0.1,0.2,0.2c0,0,0,0.1,0,0.1
	l0.3-0.1c0,0,0,0-0.1-0.1c-0.1-0.1-0.2-0.2-0.4-0.3C10.5,16.3,10.4,16.3,10.3,16.3L10.3,16.3z M13.1,20.3c0,0-0.1,0-0.1,0
	c0,0-0.1,0.1-0.3,0.3c-0.2,0.1-0.4,0.3-0.5,0.3c-0.1,0-0.3-0.1-0.5-0.3c-0.2-0.1-0.3-0.3-0.3-0.3c0-0.1-0.1-0.1-0.2,0
	c-0.1,0-0.1,0.1,0,0.2c0,0,0,0,0,0c0,0,0.1,0.2,0.3,0.3c0.2,0.2,0.4,0.3,0.7,0.3c0.3,0,0.5-0.2,0.7-0.4c0.2-0.2,0.3-0.3,0.3-0.3
	C13.2,20.4,13.2,20.3,13.1,20.3C13.1,20.3,13.1,20.3,13.1,20.3z M11,0c-0.8,0-1.5,0.4-2.2,0.7C8.2,1,7.6,1.2,6.9,1.4
	C6.3,1.6,5.6,1.7,5.1,2.2C4.9,2.4,4.8,2.6,4.6,2.8C4.3,3.3,4.1,3.9,4.1,4.5c0,0.6,0.2,1.2,0.4,1.8C4.9,7.5,5.3,8.8,5.7,10
	c0.4,1.2,0.7,2.3,1.3,3.4c0.2,0.4,0.3,0.8,0.5,1.2c0,0.1,0.1,0.2,0.1,0.1c0.1,0,0.2-0.1,0.4-0.2c0.8-0.4,1.7-0.6,2.7-0.7
	c0.7-0.1,1.4-0.1,2.1,0.1c0.7,0.2,1.4,0.4,2.1,0.7c0.4,0.2,0.7,0.3,1.1,0.5c0,0,0.1,0.1,0.2,0c0.2-0.3,0.5-0.6,0.7-1
	c0.5-1.1,0.5-2.3,1-3.3c0.4-0.7,0.9-1.3,1.3-2c0.2-0.3,0.4-0.5,0.6-0.7c0.4-0.7,0.8-1.4,1-2.2c0.1-0.3,0.2-0.6,0.1-0.9
	c-0.1-0.3-0.2-0.6-0.3-0.8c-0.1-0.2-0.2-0.5-0.3-0.7c-0.4-0.7-1.1-1.2-1.7-1.5c-1-0.6-2.2-1-3.4-1.3c-1.2-0.3-2.5-0.5-3.7-0.6
	C11.3,0,11.1,0,11,0L11,0z M10.1,0.6C9.9,0.8,9.8,1.2,9.6,1.5C9.5,2.1,9.4,2.7,9.4,3.2c0.1,1.1,0.2,2.1,0.3,3.2
	c0.2,1.4,0.4,2.7,0.7,4c0,0.2,0.1,0.3,0.1,0.5c-0.1-0.2-0.2-0.4-0.3-0.6C10,9.6,9.8,8.8,9.6,8C9.3,6.6,9.1,5.2,9.1,3.7
	c0-0.8,0-1.7,0.4-2.5C9.6,1,9.7,0.8,9.9,0.6C10,0.6,10.1,0.6,10.1,0.6L10.1,0.6L10.1,0.6z M6.5,1.8c0.1,0,0.1,0.2,0.2,0.3
	c0.3,0.8,0.4,1.6,0.7,2.4c0.2,0.6,0.2,1.3,0.3,2c0.1,1,0.1,2.1,0.2,3.1C7.9,9.8,8,10,8,10.2c0,0.1-0.1,0.1-0.1,0
	C7.8,10,7.8,9.8,7.7,9.6c-0.2-0.6-0.2-1.3-0.3-2C7.2,6.3,7.1,5,6.8,3.7C6.7,3.1,6.5,2.5,6.4,1.8C6.4,1.8,6.5,1.8,6.5,1.8z M4.6,3.6
	C4.8,3.7,5,3.9,5.1,4c0.4,0.5,0.5,1.2,0.7,1.8c0.3,1.3,0.4,2.6,0.7,3.8c0.1,0.7,0.3,1.3,0.5,2c0,0.1,0,0.1,0,0.2
	c-0.2-0.4-0.4-0.9-0.6-1.4C5.9,8.8,5.7,7,5.2,5.3C5.1,4.8,4.9,4.3,4.6,3.9C4.6,3.8,4.5,3.7,4.6,3.6C4.6,3.6,4.6,3.6,4.6,3.6L4.6,3.6
	z M17.2,16.8c-0.1,0-0.3,0.1-0.3,0.3c0.1,0.2,0.3,0.3,0.5,0.4c0.4,0.2,0.9,0.3,1.4,0.5c0.1,0.1,0.1,0.2,0.1,0.3
	c-0.2,0.3-0.5,0.4-0.7,0.6c-0.4,0.3-0.8,0.5-1.1,0.9c-0.1,0.1,0,0.3,0.1,0.3c0.1,0.1,0.2,0,0.3,0c0.5-0.3,1-0.7,1.5-1
	c0.3-0.2,0.6-0.5,0.9-0.8c0.1-0.1,0-0.3-0.1-0.4c-0.3-0.3-0.6-0.5-1-0.7c-0.5-0.2-0.9-0.4-1.5-0.5C17.4,16.8,17.3,16.8,17.2,16.8z
	 M6,16.8c-0.5,0.1-1,0.4-1.5,0.7c-0.4,0.2-0.9,0.5-1.2,0.8c-0.1,0.1-0.2,0.3-0.2,0.5C3.2,18.9,3.3,19,3.4,19
	c0.9,0.4,1.7,0.8,2.6,1.2c0.1,0,0.3,0.1,0.4,0.1c0.2,0,0.3-0.2,0.2-0.4c-0.1-0.2-0.4-0.4-0.7-0.5c-0.5-0.3-1.2-0.5-1.6-0.9
	c0-0.1,0.1-0.1,0.1-0.2c0.5-0.4,1.2-0.6,1.7-1.1c0.1-0.1,0.2-0.3,0-0.4C6.2,16.8,6.1,16.8,6,16.8z M14.1,17.6
	c-0.4,0-0.8,0.4-0.8,0.9c0,0.3,0.1,0.5,0.2,0.8c0.1,0.2,0.3,0.3,0.5,0.3c0.3,0,0.6-0.1,0.7-0.3c0.1-0.2,0.2-0.5,0.2-0.8
	C15,18,14.5,17.6,14.1,17.6L14.1,17.6z M9.6,17.6c-0.5,0-0.8,0.5-0.8,1c0,0.4,0.3,0.9,0.8,1c0.4,0.1,0.7-0.2,0.8-0.5
	c0.1-0.4,0.1-0.8,0-1.1C10.2,17.7,9.9,17.6,9.6,17.6z M9.7,18.3c0.2,0.1,0.3,0.5,0,0.6c-0.1,0-0.2-0.1-0.2-0.2
	C9.5,18.5,9.6,18.3,9.7,18.3z M14.1,18.4c0.1,0,0.2,0.1,0.2,0.2c0,0.2-0.2,0.3-0.4,0.2c-0.1-0.1-0.2-0.3,0-0.4
	C14,18.4,14.1,18.4,14.1,18.4z M10.6,21.4c-0.6,0.1-1,0.3-1.5,0.6c-0.3,0.2-0.7,0.3-1,0.2C7.7,22,7.4,21.8,7,21.6
	c-0.1,0-0.1,0.1,0,0.1c0.1,0.5,0.1,1.1,0.5,1.5c0.3,0.4,0.9,0.6,1.4,0.7c0.8,0.1,1.6-0.1,2.3-0.6c0.3-0.3,0.6-0.6,0.6-1
	c0-0.3-0.2-0.6-0.5-0.7C11,21.5,10.8,21.4,10.6,21.4z M13.2,21.4c-0.4,0.1-0.8,0.3-1,0.6c-0.1,0.4,0,0.7,0.3,1
	c0.4,0.5,1.1,0.8,1.7,0.9c0.6,0.1,1.2,0,1.7-0.2c0.4-0.2,0.8-0.7,0.9-1.1c0.1-0.3,0.1-0.6,0.1-0.9c-0.1-0.1-0.1,0-0.2,0.1
	c-0.3,0.1-0.6,0.4-1,0.4c-0.4,0-0.7-0.2-1-0.3c-0.4-0.2-0.9-0.4-1.3-0.5C13.3,21.4,13.2,21.4,13.2,21.4L13.2,21.4z"/>
</svg>
